<svg width="266" height="297" viewBox="0 0 266 297" fill="none" xmlns="http://www.w3.org/2000/svg">
<path fill-rule="evenodd" clip-rule="evenodd" d="M130.192 3.53096C123.408 11.6277 123.627 43.3581 130.192 65.8977C136.976 88.656 161.703 101.567 189.057 96.9715C209.19 93.689 266.086 64.8035 265.211 58.2386C263.023 43.5769 242.671 45.1088 207.877 62.6152C161.704 85.5924 159.953 84.2794 149.668 18.8491C145.729 -6.09758 133.037 0.248507 130.192 3.53096ZM77.8917 46.4217C82.2684 104.412 69.1387 122.794 20.1207 126.951C-0.0117099 128.702 -4.60779 133.079 7.42789 139.206C29.5298 150.585 77.6727 140.956 91.8967 122.356C102.401 108.569 110.935 34.8236 103.713 19.2867C102.182 16.0042 72.8586 -17.9145 77.8917 46.4217ZM225.383 116.885C169.363 147.302 153.388 176.407 164.986 227.176C175.052 270.723 187.964 269.848 189.714 225.425C191.684 177.501 194.09 172.906 233.917 144.677C258.427 127.389 263.679 121.043 257.552 116.229C252.081 111.414 234.793 111.633 225.383 116.885ZM121.439 220.392C115.749 192.819 92.1151 179.689 63.0106 187.786C43.5347 193.038 20.9958 207.043 20.9958 213.827C20.9958 221.924 39.5964 223.674 53.8204 217.109C58.4158 214.921 68.4816 211.201 76.3595 208.356C79.2043 207.262 82.2677 207.7 84.8937 209.232C87.5196 210.763 89.2707 213.389 89.7084 216.453C91.459 227.176 93.8659 243.369 94.9601 257.156C97.5861 290.418 101.306 296.545 118.812 296.545C129.973 295.889 131.067 266.784 121.439 220.392Z" fill="#F1D1AE"/>
</svg>
