<svg width="265" height="297" viewBox="0 0 265 297" fill="none" xmlns="http://www.w3.org/2000/svg">
<path fill-rule="evenodd" clip-rule="evenodd" d="M129.349 3.21456C122.566 11.3113 122.784 43.0417 129.349 65.5813C136.133 88.3396 160.861 101.251 188.214 96.6551C208.347 93.3726 265.243 64.4871 264.368 57.9222C262.18 43.2605 241.828 44.7924 207.034 62.2988C160.861 85.276 159.11 83.963 148.825 18.5327C144.886 -6.41398 132.194 -0.0678997 129.349 3.21456ZM77.049 46.1053C81.4256 104.095 68.296 122.477 19.2779 126.635C-0.854483 128.386 -5.45057 132.762 6.58511 138.889C28.687 150.269 76.8299 140.64 91.0539 122.039C101.558 108.253 110.092 34.5072 102.871 18.9702C101.339 15.6878 72.0159 -18.2309 77.049 46.1053ZM224.541 116.569C168.52 146.986 152.545 176.091 164.143 226.859C174.209 270.407 187.121 269.531 188.872 225.109C190.841 177.185 193.248 172.589 233.075 144.36C257.584 127.073 262.836 120.727 256.709 115.912C251.238 111.098 233.95 111.317 224.541 116.569ZM120.596 220.076C114.906 192.503 91.2723 179.373 62.1679 187.47C42.6919 192.722 20.153 206.727 20.153 213.511C20.153 221.607 38.7536 223.358 52.9776 216.793C57.5731 214.605 67.6388 210.885 75.5167 208.04C78.3615 206.946 81.4249 207.383 84.0509 208.915C86.6769 210.447 88.4279 213.073 88.8656 216.136C90.6163 226.859 93.0232 243.053 94.1173 256.839C96.7433 290.101 100.463 296.229 117.97 296.229C129.13 295.572 130.225 266.468 120.596 220.076Z" fill="#341716"/>
</svg>
