<svg width="249" height="247" viewBox="0 0 249 247" fill="none" xmlns="http://www.w3.org/2000/svg">
<path fill-rule="evenodd" clip-rule="evenodd" d="M78.0257 2.55926C73.1804 6.19324 76.6127 16.4895 84.2844 21.5367C90.7448 25.7763 118.403 27.1896 138.592 24.565C193.909 17.0952 224.192 32.2368 221.164 65.5483C216.924 114.405 216.117 148.928 219.145 165.483C222.577 184.662 222.174 183.249 215.714 178.403C209.455 173.76 195.121 164.271 187.045 159.224C180.383 155.186 168.875 149.332 166.654 156.802C163.02 169.117 152.118 188.094 142.428 201.015C120.422 230.289 78.0257 236.951 41.6859 230.692C26.3425 228.068 25.9387 222.819 26.5443 211.311C28.5632 170.126 31.3893 60.2992 36.2346 37.0821C38.6572 25.3726 41.4838 23.3537 50.5688 20.7292C66.5179 16.2876 55.6164 8.61591 36.8408 10.8367C23.7181 12.4518 16.2483 17.297 11.6048 34.4575C4.53878 61.3086 5.34633 110.165 0.501022 210.1C-0.710304 233.519 13.0181 241.594 32.8031 243.613C44.5125 244.825 62.2785 245.228 92.1579 245.632C129.305 246.036 147.878 246.642 160.396 244.825C174.528 242.806 180.787 237.758 197.544 226.655C250.438 191.122 248.419 194.353 248.621 147.515C249.025 40.1104 234.085 12.6537 173.115 9.82723C155.349 9.01968 138.188 7.00077 131.728 5.18378C114.769 0.540362 82.871 -1.07472 78.0257 2.55926ZM113.961 59.8954C99.2235 61.1067 94.1771 72.0087 106.694 75.4407C116.99 78.2672 168.673 78.8728 185.834 77.0558C196.332 75.8445 192.092 68.3746 183.613 64.7407C171.096 59.2897 145.456 57.2708 113.961 59.8954ZM88.5243 101.08C53.7996 102.696 62.8843 112.184 78.2278 115.213C109.319 121.269 191.89 122.077 191.89 114.001C191.89 102.897 152.321 98.0521 88.5243 101.08ZM88.7254 168.713C103.059 168.309 131.728 165.886 136.977 164.271C146.062 161.445 133.545 151.754 117.798 149.534C96.5998 146.505 87.7159 145.698 82.6687 146.101C56.0196 147.515 67.729 169.319 88.7254 168.713ZM218.943 191.324C216.52 193.141 193.303 216.56 165.443 228.27C154.945 232.711 149.494 232.106 156.358 223.223C161.809 213.33 180.585 171.539 185.228 171.539C187.853 171.741 218.943 191.324 218.943 191.324Z" fill="#240D0E"/>
</svg>
