<svg width="260" height="257" viewBox="0 0 260 257" fill="none" xmlns="http://www.w3.org/2000/svg">
<path d="M206.708 21.85C186.811 13.6223 179.082 19.8754 194.539 34.1916C219.534 57.3937 231.044 105.608 230.879 134.899C230.386 204.505 175.794 241.694 132.548 241.036C80.9148 240.214 21.3907 199.239 22.0485 145.265C22.8706 65.2923 75.8177 20.3691 138.961 15.597C164.119 13.6223 166.422 4.57194 141.756 0.951819C78.6133 -8.42775 1.16473 52.7862 0.0137094 128.482C-0.315249 152.342 5.27585 176.86 16.7862 194.468C44.5756 236.922 85.3551 256.833 139.783 256.998C175.629 257.162 197.334 245.478 232.03 207.467C278.236 156.785 265.41 46.5332 206.708 21.85Z" fill="#240D0E"/>
<mask id="mask0_2234_238" style="mask-type:alpha" maskUnits="userSpaceOnUse" x="11" y="5" width="239" height="247">
<path fill-rule="evenodd" clip-rule="evenodd" d="M130.071 11C67.5992 11 17 64.9112 17 131.472C17 184.781 49.3665 229.807 94.3121 245.77C99.9656 246.824 102.086 243.21 102.086 240.047C102.086 237.186 101.944 227.699 101.944 217.61C73.5354 223.181 66.1858 210.231 63.9244 203.454C62.6523 199.99 57.1401 189.299 52.3346 186.437C48.3771 184.179 42.7236 178.607 52.1933 178.456C61.0976 178.306 67.4578 187.19 69.5779 190.804C79.7543 209.026 96.0082 203.906 102.51 200.743C103.499 192.913 106.467 187.642 109.718 184.63C84.5598 181.619 58.2708 171.228 58.2708 125.147C58.2708 112.046 62.6523 101.203 69.8606 92.7704C68.7299 89.7586 64.7724 77.4102 70.9913 60.8453C70.9913 60.8453 80.4609 57.6829 102.086 73.1937C111.131 70.4831 120.742 69.1277 130.353 69.1277C139.964 69.1277 149.575 70.4831 158.621 73.1937C180.246 57.5323 189.716 60.8453 189.716 60.8453C195.934 77.4102 191.977 89.7586 190.846 92.7704C198.055 101.203 202.436 111.895 202.436 125.147C202.436 171.378 176.006 181.619 150.847 184.63C154.946 188.395 158.48 195.623 158.48 206.918C158.48 223.031 158.338 235.982 158.338 240.047C158.338 243.21 160.458 246.975 166.112 245.77C188.559 237.696 208.064 222.326 221.882 201.822C235.7 181.319 243.136 156.715 243.141 131.472C243.141 64.9112 192.542 11 130.071 11Z" stroke="black" stroke-width="12" stroke-linejoin="round"/>
</mask>
<g mask="url(#mask0_2234_238)">
<ellipse cx="130.286" cy="134.18" rx="105.963" ry="111.818" fill="#240D0E"/>
</g>
</svg>
