<svg width="258" height="238" viewBox="0 0 258 238" fill="none" xmlns="http://www.w3.org/2000/svg">
<path fill-rule="evenodd" clip-rule="evenodd" d="M94.9323 1.54599C68.0186 3.71645 62.3752 6.10394 69.7548 12.1812C71.7082 13.9176 90.3746 14.5688 130.962 14.1347C203.673 13.4836 215.176 14.7858 224.075 24.3358C233.408 34.3199 251.205 37.3586 251.205 28.8938C251.205 24.987 235.795 10.879 228.416 8.05737C213.657 2.41417 132.481 -1.49266 94.9323 1.54599ZM21.3539 18.2586C-19.4508 59.0632 4.4241 236.173 49.3526 226.189C57.8174 224.235 57.6006 221.197 48.4847 217.507C30.9039 210.127 26.3458 195.802 30.9037 163.028C33.5083 144.362 33.9422 128.735 32.8569 87.0621C31.3376 29.979 32.8573 21.9483 45.229 17.8244C52.3915 15.654 48.4847 11.5301 38.7176 10.6619C30.6869 10.0108 28.7335 10.879 21.3539 18.2586ZM174.371 43.0018C161.566 53.203 168.728 66.6598 187.177 66.6598C200.417 66.6598 207.796 60.3654 207.796 49.0791C207.796 38.0097 185.875 33.8859 174.371 43.0018ZM232.322 47.5598C226.028 65.7916 226.462 76.2099 226.462 179.09C225.811 181.043 232.322 203.833 204.106 209.91C193.037 212.298 173.285 212.949 131.178 213.383C60.6384 214.468 57.1657 214.902 64.9793 224.018C77.3509 238.994 205.842 242.25 233.19 228.359C250.554 219.46 257.934 183.648 257.934 107.465C257.5 61.8848 241.004 22.3824 232.322 47.5598ZM82.9948 87.0621C46.531 121.138 81.2578 181.043 143.116 171.059C181.967 164.765 195.425 83.8064 157.008 83.8064C149.411 83.8064 148.325 87.0621 154.403 91.8372C185.657 116.363 151.798 167.586 114.032 155.432C75.3977 143.06 84.08 81.853 126.404 81.853C135.954 81.853 141.814 77.5121 132.264 73.6053C124.016 70.1326 105.568 66.2257 82.9948 87.0621Z" fill="#FDD68A"/>
</svg>
