<svg width="349" height="324" viewBox="0 0 349 324" fill="none" xmlns="http://www.w3.org/2000/svg">
<path d="M332.456 129.463C339.037 133.027 343.836 129.189 341.917 121.923C336.57 102.731 325.465 89.7073 321.901 98.618C320.53 102.182 329.44 127.955 332.456 129.463Z" fill="#240D0E"/>
<path d="M139.439 214.459C136.423 215.692 135.189 219.257 137.656 220.079C143.962 222.41 143.551 239.134 130.802 241.602C117.642 244.07 112.705 227.208 116.544 223.506C121.753 218.297 112.158 204.177 100.369 216.789C96.256 221.176 99.8203 253.392 133.27 251.884C166.856 250.376 159.453 206.508 139.439 214.459Z" fill="#240D0E"/>
<path d="M315.046 73.3941C314.498 62.1529 296.677 44.3315 290.097 48.4441C288.177 49.6779 299.556 70.5152 305.313 76.2729C309.7 80.7968 315.321 79.1517 315.046 73.3941Z" fill="#240D0E"/>
<path d="M129.978 143.72C122.301 140.567 120.382 141.527 120.93 148.381C121.89 160.856 114.076 159.348 97.6256 143.72C87.6182 134.261 77.3367 129.737 77.3367 134.809C77.3367 145.228 104.754 166.614 118.189 166.614C133.543 166.477 142.59 149.067 129.978 143.72Z" fill="#240D0E"/>
<path d="M345.754 154.825C343.561 148.245 337.803 146.326 335.061 151.398C331.634 157.567 331.908 189.92 346.165 175.389C349.181 172.236 349.181 165.107 345.754 154.825Z" fill="#240D0E"/>
<path d="M330.81 199.654C319.98 217.064 318.748 228.168 327.521 228.168C336.843 228.168 342.601 218.435 341.641 204.178C341.23 195.952 334.786 193.348 330.81 199.654Z" fill="#240D0E"/>
<path d="M311.893 240.916C281.46 268.471 233.205 268.882 201.538 247.634C179.33 232.691 165.21 212.676 186.184 195.952C193.039 190.468 200.854 183.614 203.459 180.872C204.829 179.501 220.593 170.179 201.538 165.518C155.065 154.414 156.849 99.8533 204.829 67.6378C218.675 58.3158 252.673 44.3329 261.309 44.3329C275.841 44.3329 286.397 37.6156 280.502 32.1321C259.116 12.1175 201.812 -2.96215 163.153 1.28756C15.6477 17.1897 -51.5246 171.139 46.4934 268.471C108.457 330.023 203.32 341.127 272.138 294.929C285.573 285.881 318.199 264.632 326.013 247.771C329.166 240.505 318.337 235.159 311.893 240.916ZM283.655 278.204C256.511 299.041 200.03 312.065 156.025 307.815C-26.5755 290.131 -22.8731 62.2913 142.043 21.1652C182.347 11.1579 220.593 14.0366 255.002 27.0599C268.711 32.2692 270.22 33.503 262.406 33.503C249.383 33.503 222.787 41.0428 205.651 49.5422C140.945 81.8949 130.802 139.746 185.226 166.615C194.411 171.139 194.409 171.139 191.256 173.195C159.863 193.895 157.259 211.991 181.249 240.916C205.788 270.527 242.664 279.438 286.532 266.415C295.991 263.536 302.162 264.084 283.655 278.204Z" fill="#240D0E"/>
</svg>
