<svg width="500" height="333" viewBox="0 0 500 333" fill="none" xmlns="http://www.w3.org/2000/svg">
<path d="M108.337 190.49L94.004 190.156C-62.996 187.489 -10.6627 -43.1779 157.337 17.8221C281.337 62.8221 258.337 269.822 125.671 303.822C67.004 318.822 1.67069 308.155 50.3374 291.489C92.004 277.489 125.671 237.157 123.337 204.157C122.671 196.823 116.337 190.49 108.337 190.49Z" fill="black" fill-opacity="0.33"/>
<path d="M414.671 9.48789C565.671 67.4879 504.338 320.822 336.671 331.822C293.004 334.822 281.671 324.489 314.671 312.155C346.671 300.155 387.004 243.489 391.337 205.155C392.337 197.489 386.338 191.155 378.671 191.155C334.671 191.155 316.337 191.156 290.671 155.823C227.671 68.4892 311.337 -30.1788 414.671 9.48789Z" fill="black" fill-opacity="0.33"/>
</svg>
