<svg width="267" height="245" viewBox="0 0 267 245" fill="none" xmlns="http://www.w3.org/2000/svg">
<path d="M57.5902 138.463C61.5377 171.243 71.4922 187.72 93.8034 198.188C114.741 207.971 117.659 199.562 101.698 184.288C69.2611 153.051 62.053 131.941 82.8196 121.816C93.6326 116.666 173.782 119.755 173.782 119.755C181.848 119.584 188.37 126.277 187.854 134.345C185.623 169.527 174.125 198.704 138.599 198.876C129.331 198.876 126.412 202.479 132.762 205.912C166.23 223.932 206.733 182.743 207.592 129.882C207.935 106.026 162.282 98.8171 66.8579 107.571C54.5009 108.944 54.1578 109.973 57.5902 138.463Z" fill="#F1D1AE"/>
<path d="M153.701 71.3593C159.88 73.934 161.596 76.1655 162.282 82.5154C163.484 95.7307 173.782 95.3875 173.782 82.3431V72.5612H188.027C209.994 72.5612 209.137 62.435 186.997 58.8308L174.984 56.9429L174.297 46.3022C173.438 33.0869 166.918 27.938 160.052 34.8032C158.507 36.3478 157.134 41.1533 157.134 45.6156C157.134 52.824 156.447 53.5103 149.926 53.5103C135.852 53.5103 138.426 64.8378 153.701 71.3593Z" fill="#F1D1AE"/>
<path d="M181.506 3.04989C151.985 -1.24081 146.836 3.73643 168.975 15.4069C194.892 29.137 232.134 72.3865 237.111 112.205C243.29 161.289 202.958 216.381 153.873 225.478C78.8721 239.379 6.78963 158.715 31.1605 88.0042C46.9501 42.1806 86.0807 2.53495 116.459 9.40008C134.136 13.3474 135.509 3.73643 121.607 1.16201C113.884 -0.210926 102.385 -0.554268 92.9462 1.16201C5.5883 16.2651 -32.341 146.358 32.8768 207.456C104.616 274.562 218.748 246.931 259.767 152.708C284.48 96.0716 240.201 11.4596 181.506 3.04989Z" fill="#F1D1AE"/>
<path d="M71.1491 70.1553C79.9018 70.1553 80.5882 70.6694 80.5882 77.1916C80.5882 94.3544 93.4603 98.9883 96.2073 82.6842C98.6097 68.4393 99.1238 67.7529 108.221 67.7529C120.234 67.7529 118.861 60.2008 106.332 57.1116C98.2665 55.0521 97.4078 54.194 97.4078 46.8141C97.4078 30.5095 86.7672 23.1298 81.1037 35.4868C79.5586 38.9194 78.3577 44.2396 78.3577 47.5006C78.3577 52.9927 77.843 53.3358 69.09 51.9629C50.5544 49.0451 51.2404 70.1553 71.1491 70.1553Z" fill="#F1D1AE"/>
</svg>
