<svg width="342" height="121" viewBox="0 0 342 121" fill="none" xmlns="http://www.w3.org/2000/svg">
<path fill-rule="evenodd" clip-rule="evenodd" d="M325.605 5.88967C316.805 1.42301 301.738 -0.910325 292.671 0.889675C289.004 1.62301 282.405 4.95635 280.405 7.08969C279.138 8.48969 279.005 9.48967 278.938 16.8897C278.805 25.4897 278.671 27.1564 278.004 27.823C276.671 29.1564 228.138 23.5564 199.138 21.423C171.204 19.3564 144.271 20.1564 116.471 23.823C102.804 25.623 103.471 25.2897 75.2042 24.4897C74.2042 17.1564 73.9376 14.223 72.8709 11.1564C69.8709 2.42302 52.1382 2.22301 43.6049 2.55634C26.3382 3.22301 8.2709 8.22301 2.00424 15.2897C-0.529095 18.1563 -0.395763 20.9564 2.73757 34.0897C7.73757 54.8897 8.13757 62.1563 4.73757 74.7563C-0.395762 93.823 1.27091 101.623 11.1376 104.556C17.4042 106.423 18.0709 105.423 13.7376 100.623C9.60424 96.023 10.0042 75.023 14.4709 66.1564C15.6042 63.8897 15.4709 59.9563 14.0709 51.423C13.0042 45.1564 11.1376 28.5563 9.8709 23.2897C7.73757 14.3563 11.5376 12.2897 37.4709 7.68968C45.0042 6.35635 65.6709 6.48968 66.8042 7.62301C70.4709 11.3563 55.5376 15.2897 51.3376 11.7564C49.2042 9.95635 48.8716 9.88968 44.2716 10.2897C30.1382 11.4897 31.0716 13.7564 31.2716 22.823C26.0716 22.0897 16.4709 21.4897 17.3376 20.023C18.1376 18.7563 15.6709 17.7563 14.0042 18.6897C8.07091 21.9563 19.5376 26.3564 35.6709 27.0897C54.6709 27.8897 73.5376 31.423 143.738 28.0897C183.804 26.223 189.871 28.2897 217.738 30.423C245.538 32.5564 297.471 43.623 330.138 17.223C335.338 13.023 335.404 13.423 332.804 28.3563C328.404 53.223 328.405 54.023 332.405 78.423C340.472 127.823 224.938 103.423 113.738 112.756C98.2709 114.023 83.2042 115.09 69.6709 115.823C60.9376 116.29 42.3376 112.69 40.1376 110.09C38.4709 108.156 27.6716 106.223 26.2716 107.623C24.3382 109.556 49.1376 123.49 75.4709 120.556C91.0709 118.823 115.938 117.756 131.738 116.756C161.404 114.823 288.672 120.556 311.405 113.156C329.605 107.223 340.538 102.423 339.605 85.623C338.805 70.8897 329.938 50.4897 339.405 23.423C341.738 16.6897 341.738 16.623 339.938 12.8897C337.805 8.42301 330.138 4.08969 329.204 6.82302C329.204 7.35636 327.872 6.95634 325.605 5.88967ZM319.138 8.22301C326.004 9.55634 329.471 10.623 329.471 11.423C329.471 12.6897 318.472 20.2897 317.938 19.3563C317.872 19.223 317.138 17.6897 316.338 15.9563C313.138 9.15635 300.204 4.88968 300.204 10.6897V12.5563C293.204 11.4897 284.738 11.9563 285.204 9.02302C285.604 6.08968 307.071 5.82301 319.138 8.22301ZM310.004 16.2897C310.404 20.8897 310.538 22.5563 310.471 22.623C309.271 24.4897 286.205 28.023 286.072 26.3563C285.472 17.3563 285.071 12.823 286.338 13.223C296.271 16.0897 300.738 15.5563 310.004 16.2897ZM49.4709 13.423C49.4709 14.7564 40.1376 17.9564 37.8042 15.423C35.4709 12.8897 49.4709 12.1564 49.4709 13.423ZM69.0709 19.223C69.3376 22.023 69.3376 24.4897 69.2042 24.6897C68.8709 25.023 37.5376 23.0897 37.2042 22.6897C37.0042 22.423 36.3376 19.6897 36.1376 18.823C46.2042 18.6897 50.3376 19.023 63.8042 15.1564C68.7376 13.6897 68.6042 13.623 69.0709 19.223Z" fill="#F1D1AE"/>
</svg>
