<svg width="370" height="366" viewBox="0 0 370 366" fill="none" xmlns="http://www.w3.org/2000/svg">
<path fill-rule="evenodd" clip-rule="evenodd" d="M211.093 0.77427C209.173 1.4597 202.182 7.62845 195.602 14.3457C176.41 33.8119 157.903 40.8034 145.702 33.4007C136.791 28.0543 125.962 18.1842 123.632 13.3861C118.011 1.45963 112.938 5.57226 109.1 25.5869C101.56 64.5194 78.5303 83.0261 44.1217 78.228C24.5183 75.4863 23.0101 76.4459 32.1949 87.1386C60.7088 120.451 46.178 175.971 4.36663 193.518C-3.03603 196.671 -1.93988 198.041 14.7847 206.404C41.5165 219.701 56.7331 256.303 48.3708 286.599C45.6291 296.332 45.6288 300.856 48.0964 302.501C50.8381 304.283 56.3213 304.009 58.7888 301.816C64.9577 296.469 90.731 295.236 98.9562 299.897C108.963 305.517 128.841 337.047 128.841 347.328C128.841 352.401 134.735 361.448 139.122 363.368C146.799 366.658 146.936 366.52 159.685 349.522C189.707 309.63 212.874 305.928 239.606 336.499C254.549 353.497 261.54 353.497 264.007 336.361C270.587 290.575 299.239 262.198 329.672 271.383C347.768 276.866 348.179 274.947 337.897 240.538C333.648 226.692 334.744 212.024 340.639 201.194C348.042 187.623 359.694 170.624 365.315 165.278C372.854 158.012 370.249 152.94 359.008 152.94C347.493 152.94 330.083 135.119 324.325 117.435C320.213 105.234 324.599 77.2684 333.236 59.3101C336.389 52.7299 334.744 48.3432 328.438 46.8352C324.874 45.8756 319.527 47.9318 319.527 49.9881C319.527 54.2378 277.168 57.3909 263.322 54.2379C241.388 49.1657 218.495 23.9418 221.511 8.03974C222.333 2.00795 217.536 -1.69328 211.093 0.77427ZM218.083 33.1266C229.187 56.8425 263.46 68.3577 306.368 63.0113L313.907 62.0518L311.166 68.3577C295.538 104.823 310.342 144.578 344.614 157.601C352.291 160.48 352.565 159.109 342.147 171.721C313.633 206.541 310.343 222.032 325.56 251.916C328.987 258.496 331.18 263.843 330.632 263.843C330.084 263.843 324.874 263.02 318.98 261.924C302.941 259.045 294.851 261.238 280.183 272.068C259.483 287.422 250.71 303.324 250.71 325.943V331.152L242.074 324.161C210.407 298.389 174.901 304.283 148.58 339.652L144.606 344.861L138.848 332.797C123.768 300.719 101.561 286.051 73.3208 289.478L62.6283 290.712L63.4503 286.462C69.6192 252.328 54.1279 216.959 26.5735 202.428L18.3484 198.041L30.0007 185.978C61.1193 153.763 67.5629 122.644 49.0562 92.8962L46.3145 88.5095L53.7177 89.332C84.288 92.485 118.011 66.8499 121.301 37.7876L122.261 29.6994L128.566 34.2232C153.79 52.1815 178.328 49.9883 202.318 27.5061C211.229 19.2809 211.777 18.8696 213.011 21.6113C213.559 23.3934 215.89 28.4657 218.083 33.1266ZM160.782 73.2928C39.8715 105.919 63.7239 298.526 187.65 289.752C296.634 282.075 338.72 126.482 242.622 83.9856C227.132 77.1313 223.842 84.9451 239.195 95.2266C336.938 160.617 240.566 328.273 139.944 267.818C64.958 222.854 89.2225 115.241 166.265 85.3565C176.272 81.518 192.037 78.5021 203.689 79.1876C215.89 79.873 219.866 72.4704 204.513 70.1399C192.586 68.2207 172.16 70.1398 160.782 73.2928Z" fill="#F1D1AE"/>
</svg>
